<?xml version="1.0" encoding="UTF-8"?>
<svg id="_レイヤー_1" data-name="レイヤー 1" xmlns="http://www.w3.org/2000/svg" viewBox="0 0 250 250">
  <path d="M240,41.75H10C4.48,41.75,0,46.23,0,51.75v147.11C0,204.38,4.48,208.86,10,208.86h98.11v.05h35.17v-.05h96.72c5.52,0,10-4.48,10-10V51.75c0-5.52-4.48-10-10-10ZM230,178.35c0,5.75-4.56,10.41-10.18,10.41H30.18c-5.62,0-10.18-4.66-10.18-10.41v-106.18c0-5.75,4.56-10.41,10.18-10.41h189.65c5.62,0,10.18,4.66,10.18,10.41v106.18Z"/>
  <rect x="126.88" y="77.97" width="89.92" height="8.6" rx="4.3" ry="4.3"/>
  <rect x="126.88" y="106.68" width="89.92" height="8.6" rx="4.3" ry="4.3"/>
  <rect x="126.88" y="135.39" width="89.92" height="8.6" rx="4.3" ry="4.3"/>
  <rect x="126.88" y="164.1" width="89.92" height="8.6" rx="4.3" ry="4.3"/>
  <rect x="33.2" y="77.97" width="79.39" height="94.72" rx="10" ry="10"/>
</svg>