<?xml version="1.0" encoding="UTF-8"?>
<svg id="_レイヤー_1" data-name="レイヤー 1" xmlns="http://www.w3.org/2000/svg" viewBox="0 0 250 250">
  <path d="M208.73,0H41.27c-4.39,0-7.96,3.56-7.96,7.96v234.09c0,4.39,3.56,7.96,7.96,7.96h167.45c4.39,0,7.96-3.56,7.96-7.96V7.96c0-4.39-3.56-7.96-7.96-7.96ZM126.22,230H57.21c-2.37,0-4.3-1.92-4.3-4.3s1.92-4.3,4.3-4.3h69.02c2.37,0,4.3,1.92,4.3,4.3s-1.92,4.3-4.3,4.3ZM126.22,201.29H57.21c-2.37,0-4.3-1.92-4.3-4.3s1.92-4.3,4.3-4.3h69.02c2.37,0,4.3,1.92,4.3,4.3s-1.92,4.3-4.3,4.3ZM197.09,224.71c0,2.92-2.37,5.29-5.29,5.29h-44.98c-2.92,0-5.29-2.37-5.29-5.29v-34.03c0-2.92,2.37-5.29,5.29-5.29h44.98c2.92,0,5.29,2.37,5.29,5.29v34.03ZM192.79,172.58H57.21c-2.37,0-4.3-1.92-4.3-4.3s1.92-4.3,4.3-4.3h135.59c2.37,0,4.3,1.92,4.3,4.3s-1.92,4.3-4.3,4.3ZM197.09,143c0,2.92-2.37,5.29-5.29,5.29H58.19c-2.92,0-5.29-2.37-5.29-5.29V25.29c0-2.92,2.37-5.29,5.29-5.29h133.61c2.92,0,5.29,2.37,5.29,5.29v117.71Z"/>
</svg>