<?xml version="1.0" encoding="UTF-8"?>
<svg id="_レイヤー_1" data-name="レイヤー 1" xmlns="http://www.w3.org/2000/svg" viewBox="0 0 250 250">
  <path d="M194.18,0H55.82c-6.36,0-11.56,4.7-11.56,10.45v229.86c0,5.75,5.2,10.45,11.56,10.45h138.36c6.36,0,11.56-4.7,11.56-10.45V10.45c0-5.75-5.2-10.45-11.56-10.45ZM185.74,220.46c0,5.25-4.6,9.54-10.23,9.54h-101.03c-5.62,0-10.23-4.29-10.23-9.54V29.54c0-5.25,4.6-9.54,10.23-9.54h21.78v9.85c0,3.43,2.97,6.2,6.65,6.2h44.18c3.68,0,6.65-2.77,6.65-6.2v-9.85h21.78c5.62,0,10.23,4.29,10.23,9.54v190.93Z"/>
</svg>