<?xml version="1.0" encoding="UTF-8"?>
<svg id="_レイヤー_1" data-name="レイヤー 1" xmlns="http://www.w3.org/2000/svg" viewBox="0 0 250 250">
  <path d="M240,14.06H10C4.48,14.06,0,18.53,0,24.06v147.11C0,176.69,4.48,181.17,10,181.17h98.11v30.43h-47.75c-6.9,0-12.5,5.6-12.5,12.5s5.6,12.5,12.5,12.5h129.63c6.9,0,12.5-5.6,12.5-12.5s-5.6-12.5-12.5-12.5h-46.71v-30.43h96.72c5.52,0,10-4.48,10-10V24.06c0-5.52-4.48-10-10-10ZM230,150.66c0,5.75-4.56,10.41-10.18,10.41H30.18c-5.62,0-10.18-4.66-10.18-10.41V44.47c0-5.75,4.56-10.41,10.18-10.41h189.65c5.62,0,10.18,4.66,10.18,10.41v106.18Z"/>
</svg>